<mxfile host="app.diagrams.net" modified="2022-04-18T07:08:23.620Z" agent="5.0 (Windows NT 10.0; Win64; x64) AppleWebKit/537.36 (KHTML, like Gecko) Chrome/100.0.4896.88 Safari/537.36" etag="zVbUSGXSHDK9mZMbafFX" version="17.4.5" type="github">
  <diagram name="Page-1" id="c37626ed-c26b-45fb-9056-f9ebc6bb27b6">
    <mxGraphModel dx="1483" dy="770" grid="1" gridSize="10" guides="1" tooltips="1" connect="1" arrows="1" fold="1" page="1" pageScale="1" pageWidth="1100" pageHeight="850" background="none" math="0" shadow="0">
      <root>
        <mxCell id="0" />
        <mxCell id="1" parent="0" />
        <mxCell id="8IVKxD9z1tIuyVHuPr6r-1" value="" style="whiteSpace=wrap;html=1;aspect=fixed;fillColor=#f5f5f5;fontColor=#333333;strokeColor=#666666;" vertex="1" parent="1">
          <mxGeometry x="130" y="90" width="820" height="820" as="geometry" />
        </mxCell>
        <mxCell id="8IVKxD9z1tIuyVHuPr6r-3" value="" style="rounded=0;whiteSpace=wrap;html=1;" vertex="1" parent="1">
          <mxGeometry x="160" y="110" width="200" height="290" as="geometry" />
        </mxCell>
        <mxCell id="8IVKxD9z1tIuyVHuPr6r-5" value="DSM&amp;nbsp; 2.112" style="rounded=0;whiteSpace=wrap;html=1;fontSize=18;" vertex="1" parent="1">
          <mxGeometry x="200" y="140" width="120" height="60" as="geometry" />
        </mxCell>
        <mxCell id="8IVKxD9z1tIuyVHuPr6r-6" value="MOVIE 2.113" style="rounded=0;whiteSpace=wrap;html=1;fontSize=18;" vertex="1" parent="1">
          <mxGeometry x="200" y="225" width="120" height="60" as="geometry" />
        </mxCell>
        <mxCell id="8IVKxD9z1tIuyVHuPr6r-7" value="" style="rounded=0;whiteSpace=wrap;html=1;" vertex="1" parent="1">
          <mxGeometry x="160" y="440" width="200" height="290" as="geometry" />
        </mxCell>
        <mxCell id="8IVKxD9z1tIuyVHuPr6r-8" value="JELLYFIN&amp;nbsp; 2.120" style="rounded=0;whiteSpace=wrap;html=1;fontSize=18;" vertex="1" parent="1">
          <mxGeometry x="200" y="470" width="120" height="60" as="geometry" />
        </mxCell>
        <mxCell id="8IVKxD9z1tIuyVHuPr6r-9" value="QA 2.121" style="rounded=0;whiteSpace=wrap;html=1;fontSize=18;" vertex="1" parent="1">
          <mxGeometry x="200" y="580" width="120" height="60" as="geometry" />
        </mxCell>
      </root>
    </mxGraphModel>
  </diagram>
</mxfile>
